<?xml version="1.0" encoding="iso-8859-1"?>
<!-- Generator: Adobe Illustrator 19.0.0, SVG Export Plug-In . SVG Version: 6.00 Build 0)  -->
<svg version="1.1" id="Capa_1" xmlns="http://www.w3.org/2000/svg" xmlns:xlink="http://www.w3.org/1999/xlink" x="0px" y="0px"
	 viewBox="0 0 512 512" style="enable-background:new 0 0 512 512;" xml:space="preserve">
<g>
	<path style="fill:#00BBD3;" d="M374.794,400.558c-4.483,0-9.606-1.921-13.448-5.123c-7.685-7.044-8.325-19.212-0.64-26.897
		l106.306-112.71l-106.306-112.07c-7.044-7.685-7.044-19.852,0.64-26.897c7.685-7.044,19.852-7.044,26.897,0.64L506.717,243.02
		c7.044,7.685,7.044,19.212,0,26.256L388.883,394.794C385.041,398.637,379.917,400.558,374.794,400.558z"/>
	<path style="fill:#00BBD3;" d="M137.846,400.558c-5.123,0-10.246-1.921-14.089-5.764L5.283,269.276
		c-7.044-7.685-7.044-19.212,0-26.256l118.474-125.518c7.044-7.685,19.212-8.325,26.897-0.64c7.685,7.044,8.325,19.212,0.64,26.897
		L45.629,255.828l106.306,112.07c7.044,7.685,7.044,19.852-0.64,26.897C147.452,398.637,142.329,400.558,137.846,400.558z"/>
</g>
<path style="fill:#3A2C51;" d="M228.143,459.475c-1.281,0-1.921,0-3.202,0c-10.246-1.281-17.931-11.527-16.01-21.774l56.355-368.871
	c1.281-10.246,11.527-17.931,21.774-16.01s17.931,11.527,16.01,21.774l-56.355,368.871
	C245.433,452.431,237.749,459.475,228.143,459.475z"/>
<g>
</g>
<g>
</g>
<g>
</g>
<g>
</g>
<g>
</g>
<g>
</g>
<g>
</g>
<g>
</g>
<g>
</g>
<g>
</g>
<g>
</g>
<g>
</g>
<g>
</g>
<g>
</g>
<g>
</g>
</svg>
